<?xml version="1.0" encoding="utf-8"?>
<svg viewBox="170.273 161.907 96.71 109.023" width="96.71" height="109.023" xmlns="http://www.w3.org/2000/svg">
  <path fill="#689f63" d="M218.647 270.93c-1.46 0-2.91-.383-4.19-1.12l-13.337-7.896c-1.992-1.114-1.02-1.508-.363-1.735 2.656-.93 3.195-1.14 6.03-2.75.298-.17.688-.11.993.07l10.246 6.08c.37.2.895.2 1.238 0l39.95-23.06c.37-.21.61-.64.61-1.08v-46.1c0-.46-.24-.87-.618-1.1l-39.934-23.04c-.37-.22-.86-.22-1.23 0l-39.926 23.04c-.387.22-.633.65-.633 1.09v46.1c0 .44.24.86.62 1.07l10.94 6.32c5.94 2.97 9.57-.53 9.57-4.05v-45.5c0-.65.51-1.15 1.16-1.15h5.06c.63 0 1.15.5 1.15 1.15v45.52c0 7.92-4.32 12.47-11.83 12.47-2.31 0-4.13 0-9.21-2.5l-10.48-6.04c-2.59-1.5-4.19-4.3-4.19-7.29v-46.1c0-3 1.6-5.8 4.19-7.28l39.99-23.07c2.53-1.43 5.89-1.43 8.4 0l39.94 23.08c2.58 1.49 4.19 4.28 4.19 7.28v46.1c0 2.99-1.61 5.78-4.19 7.28l-39.94 23.07c-1.28.74-2.73 1.12-4.21 1.12"/>
  <path fill="#689f63" d="M 230.987 239.164 C 213.507 239.164 209.842 231.14 209.842 224.41 C 209.842 223.77 210.358 223.26 210.999 223.26 L 216.159 223.26 C 216.729 223.26 217.209 223.675 217.299 224.238 C 218.079 229.496 220.399 232.148 230.969 232.148 C 239.389 232.148 242.969 230.246 242.969 225.781 C 242.969 223.211 241.949 221.301 228.869 220.021 C 217.929 218.941 211.169 216.531 211.169 207.781 C 211.169 199.721 217.969 194.921 229.359 194.921 C 242.149 194.921 248.489 199.361 249.289 208.901 C 249.319 209.231 249.199 209.551 248.979 209.791 C 248.759 210.021 248.449 210.161 248.129 210.161 L 242.939 210.161 C 242.399 210.161 241.929 209.781 241.819 209.261 C 240.569 203.731 237.549 201.961 229.339 201.961 C 220.149 201.961 219.079 205.161 219.079 207.561 C 219.079 210.471 220.339 211.321 232.739 212.961 C 245.019 214.591 250.849 216.891 250.849 225.521 C 250.849 234.221 243.589 239.211 230.929 239.211"/>
</svg>