<?xml version="1.0" encoding="utf-8"?>
<svg width="512" height="512" fill="none" version="1.1" viewBox="0 0 512 512" xmlns="http://www.w3.org/2000/svg">
  <title>TypeScript logo</title>
  <rect width="512" height="512" rx="50" style="fill: rgb(239, 216, 29);"/>
  <path d="M 348.64 399.062 C 358.392 414.985 371.08 426.69 393.52 426.69 C 412.371 426.69 424.413 417.268 424.413 404.25 C 424.413 388.649 412.041 383.123 391.292 374.048 L 379.917 369.168 C 347.087 355.181 325.278 337.66 325.278 300.618 C 325.278 266.498 351.276 240.523 391.907 240.523 C 420.832 240.523 441.627 250.59 456.612 276.949 L 421.185 299.697 C 413.385 285.71 404.971 280.2 391.907 280.2 C 378.58 280.2 370.135 288.654 370.135 299.697 C 370.135 313.344 378.588 318.87 398.107 327.323 L 409.482 332.196 C 448.136 348.772 469.961 365.671 469.961 403.666 C 469.961 444.626 437.784 467.066 394.573 467.066 C 352.321 467.066 325.024 446.931 311.668 420.542 L 348.64 399.062 Z M 187.926 403.004 C 195.073 415.685 201.575 426.406 217.206 426.406 C 232.152 426.406 241.582 420.557 241.582 397.818 L 241.582 243.121 L 287.077 243.121 L 287.077 398.432 C 287.077 445.541 259.457 466.982 219.142 466.982 C 182.715 466.982 161.621 448.13 150.893 425.426 L 187.926 403.004 Z" style="fill: rgb(0, 0, 0);"/>
</svg>