<?xml version="1.0" encoding="utf-8"?>
<svg viewBox="11.359 1.103 168.725 169.35" width="168.725" height="169.35" xmlns="http://www.w3.org/2000/svg">
  <g transform="matrix(0.1, 0, 0, -0.1, 0, 172)" fill="#000000" stroke="none">
    <path d="M795 1695 c-253 -47 -500 -237 -603 -465 -28 -64 -52 -137 -52 -162 0 -38 27 0 54 74 24 66 31 78 94 176 53 83 209 232 248 238 9 1 24 10 35 20 10 9 19 14 19 10 0 -4 15 1 33 12 36 22 91 39 156 47 24 3 49 9 55 12 12 8 178 6 241 -3 22 -2 82 -19 133 -35 220 -73 414 -258 505 -484 37 -92 49 -151 52 -255 13 -410 -260 -746 -665 -820 -59 -11 -188 -14 -250 -6 -54 7 -179 47 -241 77 -142 69 -277 192 -359 329 -25 41 -46 77 -47 80 -18 51 -53 185 -55 214 -2 22 -10 42 -17 44 -28 9 13 -171 65 -285 44 -97 91 -167 167 -244 160 -166 339 -241 604 -253 114 -6 286 40 406 108 222 125 383 355 422 601 15 95 -1 337 -24 370 -4 6 -13 30 -20 55 -39 137 -148 284 -291 395 -175 135 -434 193 -665 150z" style="fill: rgb(255, 255, 255);"/>
    <path d="M847 1522 c-13 -19 -28 -158 -26 -234 2 -95 23 -211 46 -248 19 -32 46 -47 103 -56 107 -17 158 103 139 329 -12 130 -26 188 -48 195 -12 4 -13 -13 -8 -106 8 -132 -7 -277 -31 -311 -28 -39 -59 -45 -87 -17 -40 40 -57 116 -62 281 -5 143 -12 190 -26 167z" style="fill: rgb(255, 255, 255);"/>
    <path d="M1315 1381 c-44 -18 -85 -93 -85 -155 0 -33 48 -107 93 -145 11 -9 17 -29 17 -58 0 -38 -5 -50 -33 -78 -55 -55 -108 -58 -165 -10 -36 30 -42 31 -42 4 0 -30 62 -89 97 -91 78 -4 142 24 185 82 47 64 35 151 -29 218 -45 46 -73 95 -73 127 0 9 11 27 25 40 28 29 85 34 105 10 7 -8 16 -15 21 -15 18 0 8 27 -19 53 -28 27 -60 33 -97 18z" style="fill: rgb(255, 255, 255);"/>
    <path d="M585 1323 c-68 -5 -155 -23 -155 -32 0 -4 61 -6 136 -5 l135 3 -123 -128 c-140 -145 -175 -197 -154 -226 13 -18 18 -18 137 -2 107 14 211 35 258 52 11 4 11 8 0 21 -13 16 -39 15 -159 -1 -14 -2 -52 -7 -85 -11 -69 -8 -76 -23 49 121 122 140 123 141 141 168 9 14 14 31 10 37 -6 9 -77 11 -190 3z" style="fill: rgb(255, 255, 255);"/>
    <path d="M845 823 c-40 -56 -148 -271 -176 -351 -26 -74 -10 -90 28 -29 15 25 36 59 45 76 19 35 38 38 108 17 l45 -13 7 -123 c7 -131 19 -163 40 -114 18 42 20 356 3 467 -20 132 -43 147 -100 70z m45 -125 c1 -29 3 -71 6 -92 5 -35 4 -38 -12 -32 -10 4 -37 10 -60 13 -39 5 -41 7 -30 27 31 58 82 136 88 136 5 0 8 -24 8 -52z" style="fill: rgb(255, 255, 255);"/>
    <path d="M115 840 c3 -5 8 -10 11 -10 2 0 4 5 4 10 0 6 -5 10 -11 10 -5 0 -7 -4 -4 -10z" style="fill: rgb(255, 255, 255);"/>
    <path d="M1407 823 c-4 -3 -7 -36 -7 -72 0 -36 -7 -120 -15 -186 -23 -194 -20 -204 56 -169 48 21 84 61 115 129 44 94 28 174 -52 252 -51 49 -80 63 -97 46z m79 -93 c31 -47 41 -113 24 -165 -12 -35 -64 -105 -79 -105 -4 0 -4 24 0 53 4 28 8 98 8 155 1 60 5 102 11 102 5 0 22 -18 36 -40z" style="fill: rgb(255, 255, 255);"/>
    <path d="M406 800 c-59 -3 -91 -9 -94 -17 -5 -17 40 -33 92 -33 41 0 44 -2 50 -31 3 -17 6 -68 6 -113 0 -152 42 -348 70 -331 8 5 9 75 4 236 l-7 229 71 0 c83 0 102 6 102 31 0 40 -34 44 -294 29z" style="fill: rgb(255, 255, 255);"/>
    <path d="M1271 797 c-6 -8 -12 -50 -13 -95 -1 -45 -5 -82 -9 -82 -4 0 -41 34 -83 76 -102 101 -109 99 -118 -36 -9 -120 1 -282 18 -287 15 -5 21 34 30 175 4 61 10 112 14 112 4 0 38 -33 76 -73 82 -86 90 -92 109 -77 21 17 22 272 1 289 -10 8 -16 8 -25 -2z" style="fill: rgb(255, 255, 255);"/>
  </g>
</svg>