<?xml version="1.0" encoding="utf-8"?>
<svg viewBox="0.94 1.6 38.66 27.8" width="38.66" height="27.8" xmlns="http://www.w3.org/2000/svg">
    <defs>
        <style>.st0555{fill:#061d2f}.st1555{clip-path:url(#SVGID_4000_)}</style>
    </defs>
    <clipPath id="SVGID_4000_">
        <path d="M8.7 24c-1.1 0-2.1-.9-2.1-2s.9-2 2.1-2 2.1.9 2.1 2-1 2-2.1 2zm25.8-10.9c-.2-1.6-1.2-2.9-2.5-3.9l-.5-.4-.4.5c-.8.9-1.1 2.5-1 3.7.1.9.4 1.8.9 2.5-.4.2-.9.4-1.3.6-.9.3-1.8.4-2.7.4H1.1l-.1.6c-.2 1.9.1 3.9.9 5.7l.4.7v.1c2.4 4 6.7 5.8 11.4 5.8 9 0 16.4-3.9 19.9-12.3 2.3.1 4.6-.5 5.7-2.7l.3-.5-.5-.3c-1.3-.8-3.1-.9-4.6-.5zm-12.9-1.6h-3.9v3.9h3.9v-3.9zm0-4.9h-3.9v3.9h3.9V6.6zm0-5h-3.9v3.9h3.9V1.6zm4.8 9.9h-3.9v3.9h3.9v-3.9zm-14.5 0H8v3.9h3.9v-3.9zm4.9 0h-3.9v3.9h3.9v-3.9zm-9.7 0H3.2v3.9h3.9v-3.9zm9.7-4.9h-3.9v3.9h3.9V6.6zm-4.9 0H8v3.9h3.9V6.6z"
              transform="matrix(1, 0, 0, 1, 0, 0)" overflow="visible"/>
    </clipPath>
    <g class="st1555">
        <path id="SVGID_3000_" class="st0555" d="M-48.8-21H1226v151.4H-48.8z" style="fill: rgb(0, 145, 226);"/>
    </g>
</svg>